<svg xmlns="http://www.w3.org/2000/svg" viewBox="0 0 512 512" width="100%" height="100%">
  <defs>
    <clipPath id="rocket-body">
      <path d="M 256 80 C 310 160, 320 300, 320 380 L 192 380 C 192 300, 202 160, 256 80 Z" />
    </clipPath>
    
    <path id="star" d="M -10 0 Q 0 0 0 -10 Q 0 0 10 0 Q 0 0 0 10 Q 0 0 -10 0 Z" />
  </defs>

  <use href="#star" x="0" y="0" transform="translate(90, 110) scale(1.5)" fill="#FF731D" />
  <use href="#star" x="0" y="0" transform="translate(420, 250) scale(1.2)" fill="#5F9DF7" />
  <use href="#star" x="0" y="0" transform="translate(160, 60) scale(0.8)" fill="#2ECC71" />
  <use href="#star" x="0" y="0" transform="translate(380, 420) scale(1)" fill="#BDBDBD" />
  
  <circle cx="100" cy="240" r="4" fill="#FFFFFF" />
  <circle cx="340" cy="120" r="6" fill="#1746A2" />
  <circle cx="450" cy="350" r="5" fill="#2ECC71" />
  <circle cx="220" cy="50" r="3" fill="#BDBDBD" />

  <line x1="70" y1="380" x2="30" y2="420" stroke="#BDBDBD" stroke-width="6" stroke-linecap="round" />
  <line x1="120" y1="440" x2="70" y2="490" stroke="#5F9DF7" stroke-width="6" stroke-linecap="round" />
  <line x1="170" y1="480" x2="140" y2="510" stroke="#1746A2" stroke-width="6" stroke-linecap="round" />
  <line x1="430" y1="130" x2="480" y2="80" stroke="#FF731D" stroke-width="6" stroke-linecap="round" />
  <line x1="390" y1="90" x2="420" y2="60" stroke="#2ECC71" stroke-width="4" stroke-linecap="round" />

  <g transform="translate(256, 256) rotate(45) translate(-256, -256)">
    
    <path d="M 195 260 L 100 370 L 100 420 L 205 380 Z" fill="#5F9DF7" />
    <path d="M 100 370 L 100 420 L 110 415 L 110 375 Z" fill="#FF731D" />

    <path d="M 317 260 L 412 370 L 412 420 L 307 380 Z" fill="#1746A2" />
    <path d="M 412 370 L 412 420 L 402 415 L 402 375 Z" fill="#FF731D" />

    <path d="M 216 410 Q 216 480 256 560 Q 296 480 296 410 Z" fill="#FF731D" />
    <path d="M 230 410 Q 230 460 256 500 Q 282 460 282 410 Z" fill="#5F9DF7" />
    <path d="M 242 410 Q 242 430 256 450 Q 270 430 270 410 Z" fill="#FFFFFF" />

    <path d="M 216 380 L 296 380 L 306 410 L 206 410 Z" fill="#BDBDBD" />
    <path d="M 256 380 L 296 380 L 306 410 L 256 410 Z" fill="#1746A2" />

    <path d="M 256 80 C 310 160, 320 300, 320 380 L 192 380 C 192 300, 202 160, 256 80 Z" fill="#FFFFFF" />

    <rect x="256" y="80" width="100" height="300" fill="#BDBDBD" clip-path="url(#rocket-body)" />

    <rect x="180" y="80" width="160" height="80" fill="#FF731D" clip-path="url(#rocket-body)" />

    <rect x="180" y="325" width="160" height="15" fill="#2ECC71" clip-path="url(#rocket-body)" />
    <rect x="180" y="340" width="160" height="8" fill="#1746A2" clip-path="url(#rocket-body)" />

    <circle cx="256" cy="230" r="36" fill="#1746A2" />
    <circle cx="256" cy="230" r="28" fill="#BDBDBD" />
    <circle cx="256" cy="230" r="22" fill="#5F9DF7" />
    <circle cx="248" cy="222" r="6" fill="#FFFFFF" />
    <circle cx="240" cy="232" r="3" fill="#FFFFFF" />

    <path d="M 256 340 L 256 430 L 242 410 Z" fill="#5F9DF7" />
    <path d="M 256 340 L 270 410 L 256 430 Z" fill="#1746A2" />
    
  </g>
</svg>